<svg width="19" height="19" viewBox="0 0 19 19" fill="none" xmlns="http://www.w3.org/2000/svg">
<g clip-path="url(#clip0_1_478)">
<path d="M6.61875 0.624927C4.72036 1.2835 3.08318 2.53349 1.94771 4.19129C0.81223 5.84909 0.238301 7.82733 0.31022 9.83542C0.38214 11.8435 1.09612 13.7756 2.34728 15.348C3.59844 16.9203 5.32084 18.0499 7.26149 18.571C8.83481 18.977 10.4832 18.9948 12.0649 18.623C13.4978 18.3011 14.8226 17.6127 15.9095 16.625C17.0407 15.5657 17.8618 14.2181 18.2845 12.727C18.7439 11.1056 18.8257 9.40045 18.5234 7.7425H9.68844V11.4074H14.8051C14.7028 11.992 14.4837 12.5498 14.1608 13.0477C13.8379 13.5456 13.4179 13.9732 12.9259 14.3049C12.3011 14.7182 11.5967 14.9963 10.8581 15.1213C10.1173 15.2591 9.35751 15.2591 8.61672 15.1213C7.86591 14.9661 7.15565 14.6562 6.53117 14.2114C5.52796 13.5013 4.77468 12.4924 4.37883 11.3288C3.97629 10.1433 3.97629 8.85817 4.37883 7.67274C4.6606 6.84181 5.12641 6.08525 5.74149 5.45954C6.44536 4.73033 7.33649 4.20909 8.31711 3.95301C9.29772 3.69692 10.3299 3.71589 11.3005 4.00782C12.0586 4.24055 12.752 4.64719 13.3252 5.19532C13.9021 4.62136 14.478 4.04592 15.053 3.46899C15.3498 3.15875 15.6734 2.86336 15.9659 2.54571C15.0909 1.73149 14.0639 1.09793 12.9437 0.681333C10.9037 -0.0593853 8.67161 -0.0792914 6.61875 0.624927Z" fill="white"/>
<path d="M6.61881 0.624916C8.6715 -0.079781 10.9036 -0.0603989 12.9437 0.679837C14.0642 1.09927 15.0907 1.73588 15.9644 2.55312C15.6676 2.87077 15.3544 3.16765 15.0515 3.4764C14.4756 4.05135 13.9002 4.62432 13.3252 5.19531C12.752 4.64718 12.0587 4.24054 11.3005 4.00781C10.3303 3.71485 9.29813 3.69479 8.31726 3.94983C7.33639 4.20487 6.44471 4.72515 5.74006 5.45359C5.12498 6.0793 4.65918 6.83586 4.3774 7.66679L1.30029 5.28437C2.40171 3.1002 4.30875 1.42948 6.61881 0.624916Z" fill="#E33629"/>
<path d="M0.483863 7.64452C0.649254 6.82484 0.923837 6.03104 1.30027 5.28436L4.37738 7.67272C3.97484 8.85815 3.97484 10.1433 4.37738 11.3287C3.35217 12.1204 2.32647 12.916 1.30027 13.7156C0.357915 11.8398 0.070513 9.70261 0.483863 7.64452Z" fill="#F8BD00"/>
<path d="M9.6884 7.74103H18.5234C18.8256 9.39898 18.7439 11.1041 18.2844 12.7256C17.8617 14.2166 17.0406 15.5642 15.9094 16.6235C14.9164 15.8487 13.9189 15.0798 12.9258 14.3049C13.4182 13.9728 13.8384 13.5448 14.1613 13.0464C14.4842 12.548 14.7032 11.9895 14.805 11.4045H9.6884C9.68692 10.1843 9.6884 8.96267 9.6884 7.74103Z" fill="#587DBD"/>
<path d="M1.29883 13.7156C2.32503 12.9239 3.35073 12.1283 4.37594 11.3287C4.77257 12.4928 5.52693 13.5017 6.53125 14.2114C7.15767 14.6541 7.86946 14.9615 8.62125 15.1139C9.36204 15.2516 10.1219 15.2516 10.8627 15.1139C11.6013 14.9889 12.3056 14.7108 12.9304 14.2975C13.9234 15.0723 14.9209 15.8412 15.914 16.6161C14.8273 17.6043 13.5025 18.2932 12.0695 18.6155C10.4877 18.9874 8.83934 18.9695 7.26602 18.5636C6.02167 18.2313 4.85936 17.6456 3.85195 16.8432C2.78567 15.9966 1.91478 14.9298 1.29883 13.7156Z" fill="#319F43"/>
</g>
<defs>
<clipPath id="clip0_1_478">
<rect width="19" height="19" fill="white"/>
</clipPath>
</defs>
</svg>
